<svg width="140" height="32" viewBox="0 0 140 32" fill="none" xmlns="http://www.w3.org/2000/svg">
<g clip-path="url(#clip0_2692_32443)">
<path d="M46.372 11.6155H44.3181V12.8459C43.9727 12.3615 43.5612 12.0023 43.0836 11.7649C42.6059 11.5287 42.1138 11.4106 41.6084 11.4106C40.7686 11.4106 40.0202 11.6071 39.3644 11.9987C38.7087 12.3904 38.1961 12.9351 37.8279 13.6328C37.4597 14.3306 37.2756 15.1284 37.2756 16.0273C37.2756 16.9263 37.4597 17.7072 37.8279 18.4038C38.1961 19.1015 38.7087 19.645 39.3644 20.0379C40.0202 20.4295 40.7686 20.626 41.6084 20.626C41.9417 20.626 42.2726 20.5742 42.6011 20.4705C42.9296 20.3669 43.2364 20.2054 43.5239 19.9861C43.8115 19.7667 44.0762 19.5016 44.3181 19.1907V19.2558C44.3181 19.8427 44.7933 20.3175 45.3781 20.3175H46.8099V19.3257H46.372V11.6155ZM43.9727 17.4879C43.7429 17.9314 43.4313 18.2833 43.0402 18.5424C42.6492 18.8015 42.2293 18.9316 41.7805 18.9316C41.2968 18.9316 40.8745 18.8111 40.5123 18.5689C40.1501 18.3267 39.865 17.9868 39.658 17.5494C39.4511 17.1119 39.3476 16.6046 39.3476 16.0286C39.3476 15.4525 39.4511 14.9283 39.658 14.4897C39.865 14.0522 40.1501 13.7124 40.5123 13.4701C40.8745 13.2279 41.298 13.1074 41.7805 13.1074C42.2293 13.1074 42.6492 13.2376 43.0402 13.4967C43.4313 13.7558 43.7417 14.1052 43.9727 14.5427C44.2026 14.9813 44.3181 15.4706 44.3181 16.0117C44.3181 16.5528 44.2026 17.0457 43.9727 17.4891V17.4879Z" fill="#FAFAFA"/>
<path d="M118.653 11.6316H116.599V12.862C116.254 12.3776 115.842 12.0185 115.365 11.7811C114.887 11.5449 114.395 11.4268 113.889 11.4268C113.05 11.4268 112.301 11.6232 111.645 12.0148C110.99 12.4065 110.477 12.9512 110.109 13.6489C109.741 14.3467 109.557 15.1445 109.557 16.0435C109.557 16.9425 109.741 17.7234 110.109 18.4199C110.477 19.1177 110.99 19.6611 111.645 20.054C112.301 20.4457 113.05 20.6421 113.889 20.6421C114.223 20.6421 114.554 20.5903 114.882 20.4866C115.211 20.383 115.517 20.2215 115.805 20.0022C116.093 19.7829 116.357 19.5177 116.599 19.2068V19.2719C116.599 19.8588 117.074 20.3336 117.659 20.3336H119.091V19.3418H118.653V11.6316ZM116.254 17.504C116.024 17.9475 115.712 18.2994 115.321 18.5585C114.93 18.8176 114.51 18.9477 114.061 18.9477C113.578 18.9477 113.155 18.8272 112.793 18.585C112.431 18.3428 112.146 18.0029 111.939 17.5655C111.732 17.128 111.629 16.6207 111.629 16.0447C111.629 15.4686 111.732 14.9444 111.939 14.5058C112.146 14.0683 112.431 13.7285 112.793 13.4863C113.155 13.244 113.579 13.1235 114.061 13.1235C114.51 13.1235 114.93 13.2537 115.321 13.5128C115.712 13.7719 116.023 14.1213 116.254 14.5588C116.484 14.9974 116.599 15.4867 116.599 16.0278C116.599 16.5689 116.484 17.0618 116.254 17.5052V17.504Z" fill="#FAFAFA"/>
<path d="M50.28 8.41016H48.2092V19.2548C48.2092 19.8417 48.6845 20.3165 49.2693 20.3165H50.7179V19.3247H50.28V8.41016Z" fill="#FAFAFA"/>
<path d="M107.896 8.41016H105.825V19.2548C105.825 19.8417 106.301 20.3165 106.885 20.3165H108.334V19.3247H107.896V8.41016Z" fill="#FAFAFA"/>
<path d="M59.4268 11.947C58.7651 11.5553 58.0143 11.3589 57.1744 11.3589C56.7605 11.3589 56.2828 11.4746 55.7426 11.7047C55.2011 11.9349 54.7704 12.2989 54.4479 12.7942V12.6773C54.4479 12.0904 53.9726 11.6156 53.3879 11.6156H51.9392V12.6074H52.3772V23.6436H54.4479V19.1558C54.7812 19.674 55.2096 20.0464 55.7342 20.2705C56.2576 20.4959 56.7376 20.608 57.1756 20.608C58.0155 20.608 58.7663 20.4115 59.428 20.0199C60.0898 19.6282 60.6048 19.0775 60.973 18.3689C61.3411 17.6603 61.5252 16.8625 61.5252 15.9744C61.5252 15.0862 61.3411 14.2921 60.973 13.5883C60.6048 12.8857 60.0898 12.3386 59.428 11.9458H59.4268V11.947ZM59.1513 17.5133C58.9504 17.9628 58.6652 18.3086 58.297 18.5509C57.9288 18.7931 57.5029 18.9136 57.0192 18.9136C56.5355 18.9136 56.1336 18.781 55.7426 18.5159C55.3515 18.2508 55.0375 17.8941 54.8017 17.4446C54.5658 16.9951 54.4479 16.5058 54.4479 15.9756C54.4479 15.4454 54.5658 14.9585 54.8017 14.515C55.0375 14.0715 55.3515 13.7173 55.7426 13.4521C56.1336 13.187 56.5596 13.0545 57.0192 13.0545C57.5029 13.0545 57.9276 13.175 58.297 13.4172C58.6652 13.6594 58.9504 13.9992 59.1513 14.4367C59.3522 14.8741 59.4533 15.3875 59.4533 15.9756C59.4533 16.5637 59.3522 17.065 59.1513 17.5145V17.5133Z" fill="#FAFAFA"/>
<path d="M129.346 18.4112C129.714 17.7087 129.898 16.9133 129.898 16.0252C129.898 15.137 129.714 14.3392 129.346 13.6306C128.978 12.922 128.463 12.3713 127.801 11.9797C127.139 11.588 126.388 11.3916 125.548 11.3916C125.112 11.3916 124.63 11.5037 124.107 11.729C123.584 11.9532 123.155 12.3255 122.821 12.8437V8.35596H120.75V19.3922H120.312V20.384H121.761C122.347 20.384 122.821 19.908 122.821 19.3223V19.2054C123.143 19.7007 123.574 20.0634 124.115 20.2948C124.656 20.525 125.133 20.6407 125.547 20.6407C126.387 20.6407 127.138 20.4442 127.8 20.0526C128.461 19.6609 128.976 19.1126 129.345 18.41H129.346V18.4112ZM127.827 16.0252C127.827 16.6132 127.726 17.1254 127.525 17.5641C127.324 18.0015 127.039 18.3413 126.671 18.5836C126.303 18.8258 125.877 18.9463 125.393 18.9463C124.91 18.9463 124.508 18.8137 124.117 18.5486C123.726 18.2835 123.411 17.9292 123.176 17.4857C122.94 17.0423 122.822 16.5554 122.822 16.0252C122.822 15.4949 122.94 15.0057 123.176 14.5562C123.411 14.1067 123.726 13.7499 124.117 13.4848C124.508 13.2197 124.934 13.0871 125.393 13.0871C125.877 13.0871 126.302 13.2077 126.671 13.4499C127.039 13.6921 127.324 14.038 127.525 14.4875C127.726 14.937 127.827 15.4491 127.827 16.0264V16.0252Z" fill="#FAFAFA"/>
<path d="M69.1031 12.0339C68.5099 11.7001 67.8349 11.5325 67.0757 11.5325C66.6618 11.5325 66.2383 11.6338 65.8075 11.835C65.3756 12.0363 65.0218 12.3339 64.7463 12.7256V8.41016H62.6755V20.3177H64.7463V15.9408C64.7463 15.4455 64.8473 14.99 65.0483 14.5754C65.2492 14.1609 65.5223 13.8355 65.8677 13.5993C66.213 13.3631 66.6101 13.245 67.0589 13.245C67.6111 13.245 68.0623 13.4788 68.4137 13.9451C68.765 14.4115 68.9395 15.0309 68.9395 15.8034V20.3189H70.9934V15.5274C70.9934 14.7441 70.8261 14.05 70.4928 13.445C70.1583 12.8401 69.6963 12.3701 69.1031 12.0363V12.0339Z" fill="#FAFAFA"/>
<path d="M81.2558 11.6155H79.2019V12.8459C78.8565 12.3615 78.445 12.0023 77.9674 11.7649C77.4897 11.5287 76.9976 11.4106 76.4922 11.4106C75.6524 11.4106 74.904 11.6071 74.2482 11.9987C73.5925 12.3904 73.0799 12.9351 72.7117 13.6328C72.3435 14.3306 72.1594 15.1284 72.1594 16.0273C72.1594 16.9263 72.3435 17.7072 72.7117 18.4038C73.0799 19.1015 73.5925 19.645 74.2482 20.0379C74.904 20.4295 75.6524 20.626 76.4922 20.626C76.8255 20.626 77.1564 20.5742 77.4849 20.4705C77.8133 20.3669 78.1202 20.2054 78.4077 19.9861C78.6953 19.7667 78.96 19.5016 79.2019 19.1907V19.2558C79.2019 19.8427 79.6771 20.3175 80.2619 20.3175H81.6937V19.3257H81.2558V11.6155ZM78.8565 17.4879C78.6267 17.9314 78.3151 18.2833 77.924 18.5424C77.533 18.8015 77.1131 18.9316 76.6643 18.9316C76.1806 18.9316 75.7583 18.8111 75.3961 18.5689C75.0339 18.3267 74.7488 17.9868 74.5418 17.5494C74.3348 17.1119 74.2314 16.6046 74.2314 16.0286C74.2314 15.4525 74.3348 14.9283 74.5418 14.4897C74.7488 14.0522 75.0339 13.7124 75.3961 13.4701C75.7583 13.2279 76.1818 13.1074 76.6643 13.1074C77.1131 13.1074 77.533 13.2376 77.924 13.4967C78.3151 13.7558 78.6255 14.1052 78.8565 14.5427C79.0864 14.9813 79.2019 15.4706 79.2019 16.0117C79.2019 16.5528 79.0864 17.0457 78.8565 17.4891V17.4879Z" fill="#FAFAFA"/>
<path d="M100.274 19.3257V11.6155H98.2199V12.8459C97.8746 12.3615 97.4631 12.0023 96.9854 11.7649C96.5077 11.5287 96.0156 11.4106 95.5103 11.4106C94.6704 11.4106 93.922 11.6071 93.2663 11.9987C92.6105 12.3904 92.0979 12.9351 91.7298 13.6328C91.3616 14.3306 91.1775 15.1284 91.1775 16.0273C91.1775 16.9263 91.3616 17.7072 91.7298 18.4038C92.0979 19.1015 92.6105 19.645 93.2663 20.0379C93.922 20.4295 94.6704 20.626 95.5103 20.626C95.8436 20.626 96.1744 20.5742 96.5029 20.4705C96.8314 20.3669 97.1382 20.2054 97.4258 19.9861C97.7134 19.7667 97.9781 19.5016 98.2199 19.1907V19.2558C98.2199 19.8427 98.6952 20.3175 99.28 20.3175H100.712V19.3257H100.274ZM97.8758 17.4879C97.646 17.9314 97.3344 18.2833 96.9433 18.5424C96.5523 18.8015 96.1323 18.9316 95.6835 18.9316C95.1998 18.9316 94.7775 18.8111 94.4153 18.5689C94.0532 18.3267 93.768 17.9868 93.5611 17.5494C93.3541 17.1119 93.2506 16.6046 93.2506 16.0286C93.2506 15.4525 93.3541 14.9283 93.5611 14.4897C93.768 14.0522 94.0532 13.7124 94.4153 13.4701C94.7775 13.2279 95.201 13.1074 95.6835 13.1074C96.1323 13.1074 96.5523 13.2376 96.9433 13.4967C97.3344 13.7558 97.6448 14.1052 97.8758 14.5427C98.1056 14.9813 98.2211 15.4706 98.2211 16.0117C98.2211 16.5528 98.1056 17.0457 97.8758 17.4891V17.4879Z" fill="#FAFAFA"/>
<path d="M138.4 16.2576C137.927 15.8527 137.15 15.5249 136.089 15.2851L134.417 14.9151C133.777 14.7729 133.466 14.456 133.466 13.9462C133.466 13.6751 133.587 13.4642 133.837 13.3039C134.101 13.134 134.534 13.0484 135.126 13.0484C135.621 13.0484 136.015 13.1581 136.3 13.3738C136.581 13.5871 136.752 13.8871 136.805 14.2668L136.82 14.3788H138.878L138.867 14.2402C138.794 13.3437 138.431 12.6363 137.788 12.1386C137.15 11.6445 136.254 11.395 135.125 11.395C133.892 11.395 132.954 11.6276 132.341 12.0879C131.716 12.5555 131.4 13.181 131.4 13.9486C131.4 14.6319 131.63 15.1959 132.082 15.6225C132.526 16.0419 133.22 16.3588 134.144 16.5661L135.835 16.936C136.664 17.1144 137.067 17.4687 137.067 18.023C137.067 18.3038 136.92 18.5268 136.621 18.7051C136.303 18.8931 135.824 18.9895 135.196 18.9895C134.568 18.9895 134.075 18.863 133.748 18.6135C133.427 18.3677 133.243 18.0122 133.2 17.5579L133.189 17.441H131.123L131.137 17.582C131.234 18.5677 131.624 19.333 132.295 19.8584C132.962 20.3802 133.937 20.6453 135.196 20.6453C136.455 20.6453 137.442 20.4103 138.108 19.9476C138.786 19.4752 139.13 18.828 139.13 18.0254C139.13 17.2723 138.885 16.6793 138.399 16.2624V16.2576H138.4Z" fill="#FAFAFA"/>
<path d="M89.9501 13.7354L85.1385 16.0239L89.9501 18.3292V20.6032L82.9233 17.2482V14.8152L89.9501 11.459V13.7354Z" fill="#FAFAFA"/>
<path d="M15.9751 32C24.7979 32 31.9502 24.8366 31.9502 16C31.9502 7.16344 24.7979 0 15.9751 0C7.1523 0 0 7.16344 0 16C0 24.8366 7.1523 32 15.9751 32Z" fill="#FAFAFA"/>
<path d="M28.5511 23.9485C28.5511 23.9642 28.5463 23.9799 28.5403 23.9968C28.5138 24.063 28.4489 24.104 28.3863 24.1377C26.614 25.1103 24.3122 24.5559 22.7324 23.2942C22.3016 22.9507 21.9094 22.5591 21.5544 22.1385C21.1959 21.7143 20.8734 21.26 20.5774 20.7888C20.2538 20.2742 19.9602 19.7416 19.6858 19.1993C19.5463 18.9245 19.4103 18.6486 19.2767 18.3714C18.3984 16.5493 17.5778 14.6573 16.235 13.1461C15.4301 12.2399 14.4193 11.4759 13.2462 11.171C12.0117 10.8504 10.6533 11.0758 9.57159 11.753C7.58628 12.9979 6.75726 15.7997 7.7439 17.9267C8.73174 20.0537 11.4053 21.2238 13.6349 20.5056C15.341 19.9561 16.6104 18.5076 17.5237 16.9638C18.0398 17.9858 18.5969 19.0896 19.2346 20.3526C19.3309 20.543 19.4295 20.7478 19.4019 20.9599C19.379 21.1371 19.2695 21.2889 19.16 21.4299C17.4743 23.5882 14.7418 24.8825 12.0069 24.8198C9.27198 24.7572 6.60205 23.3364 5.01741 21.1033C4.7154 20.6767 4.4531 20.2224 4.23411 19.7488C4.01392 19.2716 3.83585 18.7751 3.70229 18.2677C3.56873 17.7592 3.47849 17.2398 3.43397 16.7156C3.38945 16.1926 3.38945 15.6647 3.43638 15.1417C3.48331 14.6187 3.57716 14.0993 3.71793 13.5932C3.84668 13.1292 4.00911 12.6809 4.21967 12.2471C4.43024 11.8133 4.66366 11.4168 4.93318 11.0324C5.20391 10.6467 5.50471 10.2828 5.83199 9.94418C6.15926 9.60555 6.51301 9.29102 6.88721 9.00541C7.26141 8.71981 7.65847 8.46312 8.07238 8.23777C8.48508 8.01242 8.91583 7.8196 9.35862 7.66294C9.8014 7.50628 10.2574 7.38457 10.7195 7.30262C10.9469 7.26285 11.1755 7.23152 11.4053 7.21103C14.82 6.90494 18.331 8.79814 19.9566 11.8205C20.7074 10.4491 21.4582 9.07892 22.209 7.70753C22.292 7.55569 22.381 7.39782 22.5254 7.30262C22.6963 7.19055 22.9153 7.18693 23.1198 7.18693C24.3952 7.18934 25.6706 7.19055 26.946 7.19296C25.4468 9.94056 23.9476 12.6882 22.4484 15.4358C22.381 15.5587 22.3137 15.6864 22.3052 15.825C22.2968 15.9696 22.3546 16.1094 22.4123 16.2432C23.6901 19.18 25.7621 21.7649 28.3478 23.6509C28.4489 23.7244 28.562 23.8329 28.5523 23.9473H28.5511V23.9485Z" fill="#040C19"/>
</g>
<defs>
<clipPath id="clip0_2692_32443">
<rect width="139.13" height="32" fill="white"/>
</clipPath>
</defs>
</svg>
